Coordinates
version=1
nRows=7
nColumns=63
inDegrees=yes

Units are S.I. units (second, meters, Newtons, ...)
If the header above contains a line with 'inDegrees', this indicates whether rotational values are in degrees (yes) or radians (no).

endheader
time	pelvis_tilt	pelvis_list	pelvis_rotation	pelvis_tx	pelvis_ty	pelvis_tz	hip_flexion_r	hip_adduction_r	hip_rotation_r	knee_angle_r	knee_angle_r_beta	ankle_angle_r	subtalar_angle_r	mtp_angle_r	hip_flexion_l	hip_adduction_l	hip_rotation_l	knee_angle_l	knee_angle_l_beta	ankle_angle_l	subtalar_angle_l	mtp_angle_l	L5_S1_Flex_Ext	L5_S1_Lat_Bending	L5_S1_axial_rotation	L4_L5_Flex_Ext	L4_L5_Lat_Bending	L4_L5_axial_rotation	L3_L4_Flex_Ext	L3_L4_Lat_Bending	L3_L4_axial_rotation	L2_L3_Flex_Ext	L2_L3_Lat_Bending	L2_L3_axial_rotation	L1_L2_Flex_Ext	L1_L2_Lat_Bending	L1_L2_axial_rotation	L1_T12_Flex_Ext	L1_T12_Lat_Bending	L1_T12_axial_rotation	Abs_r3	Abs_r2	Abs_r1	Abs_t1	Abs_t2	neck_flexion	neck_bending	neck_rotation	arm_flex_r	arm_add_r	arm_rot_r	elbow_flex_r	pro_sup_r	wrist_flex_r	wrist_dev_r	arm_flex_l	arm_add_l	arm_rot_l	elbow_flex_l	pro_sup_l	wrist_flex_l	wrist_dev_l
      3.61016949	     -0.09841818	     -7.99070837	     83.30509850	      0.18173631	      1.00577676	      0.46371990	     -0.19662712	      1.33708497	     -5.95183360	      4.65439087	      0.08123445	     33.29683903	     15.01391056	      0.00000000	     -1.80109965	      1.04781306	    -14.18590941	      3.90577185	      0.06816858	     32.25198114	      2.52653834	      0.00000000	      0.05141558	      0.31328507	     -0.09309272	      0.09548388	      0.41666914	     -0.09891101	      0.08447066	      0.76172132	     -0.09891101	      0.05876287	      0.76172132	     -0.08145613	      0.04774451	      0.63885091	     -0.07563783	      0.02937886	      0.48527857	     -0.06981954	      0.36725636	      3.54394336	     -0.51775376	      0.00000000	      0.00000000	     10.27229406	     13.16968665	     -3.64533706	     17.56770739	    -39.97648398	    -26.63427067	    142.05251764	     78.66590022	     -9.04668898	      0.94438733	      9.01551119	    -50.08854728	    -34.26082195	    144.96639483	     65.84048411	    -13.79018843	      2.59160002
      3.62711864	     -0.02871665	     -7.55513369	     83.73547713	      0.18127505	      1.00721332	      0.46228387	     -0.95264808	      1.41666926	     -5.68107303	      4.29552343	      0.07497103	     32.93926473	     14.35420048	      0.00000000	     -2.37511257	      1.05701321	    -12.83662082	      3.69224463	      0.06444183	     32.15517835	      1.52947678	      0.00000000	      0.04550871	      0.29723004	      0.01229181	      0.08451423	      0.39531595	      0.01306005	      0.07476626	      0.72268512	      0.01306005	      0.05201191	      0.72268512	      0.01075534	      0.04225939	      0.60611150	      0.00998710	      0.02600368	      0.46040933	      0.00921886	      0.32506419	      3.36232565	      0.06836337	      0.00000000	      0.00000000	      9.33323651	     13.80083611	     -3.69725770	     18.47059509	    -41.04968643	    -27.15112621	    140.52757300	     81.22818507	    -12.51792881	      7.84268714	     13.18256869	    -50.62556984	    -28.33943301	    141.29080050	     70.16685459	    -13.80799062	     -3.53954652
      3.64406780	      0.05400507	     -6.97099626	     83.98402220	      0.18093016	      1.00870582	      0.46085230	     -1.85686014	      1.49698085	     -5.22110972	      3.92575724	      0.06851739	     32.65299695	     13.63429484	      0.00000000	     -3.29668827	      1.18505361	     -9.54046511	      3.04723812	      0.05318434	     31.47544564	     -2.26469761	      0.00000000	      0.01329238	      0.27835106	      0.20607029	      0.02468528	      0.37020691	      0.21894968	      0.02183806	      0.67678277	      0.21894968	      0.01519186	      0.67678277	      0.18031150	      0.01234331	      0.56761348	      0.16743211	      0.00759527	      0.43116579	      0.15455272	      0.09494616	      3.14876285	      1.14610114	      0.00000000	      0.00000000	      8.64502926	     14.55911851	     -3.97774111	     18.99255958	    -42.57814019	    -28.31638555	    138.21571463	     85.74245649	    -14.25016185	     12.27666502	     18.75400975	    -50.90509549	    -21.15026278	    137.60464691	     81.49616958	    -19.95416682	     -6.44594498
      3.66101695	      0.25327574	     -6.49625500	     84.24612652	      0.18004748	      1.00986168	      0.45942632	     -2.61563808	      1.66338853	     -5.04379453	      3.62628291	      0.06329058	     32.48414576	     13.30879937	      0.00000000	     -4.05578077	      1.14705149	     -6.83155186	      2.54272273	      0.04437888	     30.99867232	     -5.31332397	      0.00000000	     -0.00758138	      0.29567238	      0.25052708	     -0.01407938	      0.39324427	      0.26618502	     -0.01245545	      0.71889783	      0.26618502	     -0.00866476	      0.71889783	      0.21921119	     -0.00704007	      0.60293512	      0.20355325	     -0.00433200	      0.45799652	      0.18789531	     -0.05415303	      3.34470513	      1.39335645	      0.00000000	      0.00000000	      7.62342671	     15.02016831	     -2.41971748	     20.85268800	    -44.17977583	    -27.50817790	    134.80034506	     87.45739155	    -14.44327741	     14.52772425	     22.27390004	    -50.85334259	    -16.79446772	    134.04659780	     84.65483013	    -21.47766637	     -9.41304009
      3.67796610	      0.35121554	     -6.15490704	     84.47164669	      0.17944229	      1.01074895	      0.45835669	     -3.11262979	      1.74826211	     -5.12261095	      3.49823434	      0.06105571	     32.41949863	     13.22844103	      0.00000000	     -4.48529964	      1.09194914	     -6.40480871	      2.41537379	      0.04215623	     31.16901637	     -5.41391649	      0.00000000	     -0.01092546	      0.30301126	      0.23618657	     -0.02028967	      0.40300498	      0.25094823	     -0.01794944	      0.73674159	      0.25094823	     -0.01248671	      0.73674159	      0.20666325	     -0.01014538	      0.61790057	      0.19190159	     -0.00624281	      0.46936445	      0.17713993	     -0.07803948	      3.42772403	      1.31359887	      0.00000000	      0.00000000	      6.39475941	     15.10030232	     -0.74398056	     22.98158874	    -45.28024771	    -25.88598739	    130.75224497	     88.10631681	    -14.26372520	     14.37918450	     24.77670752	    -50.72162469	    -14.08194649	    131.20231584	     85.31803919	    -20.67855640	     -9.32006120
      3.69491525	      0.56181451	     -5.56023856	     84.89951792	      0.17815223	      1.01171569	      0.45734395	     -3.96236976	      1.93802048	     -5.32505681	      3.23876348	      0.05652709	     32.31373493	     13.07701013	      0.00000000	     -5.19853228	      0.95221765	     -5.58455704	      2.25933961	      0.03943292	     31.29354124	     -5.73341245	      0.00000000	     -0.06501060	      0.33495516	      0.23035255	     -0.12073118	      0.44549037	      0.24474959	     -0.10680591	      0.81440998	      0.24474959	     -0.07430061	      0.81440998	      0.20155848	     -0.06036884	      0.68304057	      0.18716145	     -0.03714706	      0.51884555	      0.17276442	     -0.46436421	      3.78907980	      1.28115180	      0.00000000	      0.00000000	      5.46376830	     14.97332512	      1.90077048	     24.50595010	    -46.76494135	    -24.50688012	    126.65104117	     88.41641972	    -14.49645240	     12.06281875	     27.32463882	    -50.14335197	    -11.26173198	    128.12220506	     86.02345907	    -19.88205752	    -10.16676025
      3.71186441	      0.66704387	     -5.31044565	     85.49241414	      0.17684568	      1.01206367	      0.45664499	     -4.43499085	      2.09192912	     -5.54296779	      2.96601110	      0.05176666	     32.14168737	     12.79923055	      0.00000000	     -5.49834532	      0.87190062	     -4.07591566	      2.10864998	      0.03680288	     31.06596918	     -6.87848440	      0.00000000	     -0.06552273	      0.34864255	      0.17803037	     -0.12168226	      0.46369459	      0.18915727	     -0.10764729	      0.84768950	      0.18915727	     -0.07488593	      0.84768950	      0.15577657	     -0.06084441	      0.71095189	      0.14464967	     -0.03743969	      0.54004731	      0.13352278	     -0.46802230	      3.94391427	      0.99015150	      0.00000000	      0.00000000	      4.70008891	     14.51081447	      3.52881517	     25.42855947	    -47.58371625	    -23.19428624	    122.54740365	     88.24218190	    -15.75530415	      7.77816920	     29.15697844	    -49.58656815	     -8.93756174	    125.58870955	     85.59667799	    -18.84189302	    -11.21190703
